<svg width="16" height="16" viewBox="0 0 16 16" fill="none" xmlns="http://www.w3.org/2000/svg">
<path d="M8.50123 15.2144L15.2304 8.47845C15.7659 7.936 15.8209 7.62015 15.8209 6.83737V4.23499C15.8209 3.47281 15.6423 3.21188 15.0862 2.6557L13.5137 1.08328C12.9507 0.5271 12.6898 0.348572 11.9345 0.348572H9.3252C8.54929 0.348572 8.23343 0.403503 7.69785 0.945953L0.954993 7.67508C-0.0749757 8.70505 -0.0887086 9.79681 0.961859 10.8336L5.34266 15.2144C6.38636 16.2513 7.47126 16.2444 8.50123 15.2144ZM7.61545 14.1639C7.16227 14.6171 6.68848 14.6239 6.22156 14.157L2.01243 9.95474C1.54551 9.48782 1.55924 9.00717 2.00556 8.56085L8.67289 1.90726C8.81022 1.76993 8.94068 1.68753 9.16041 1.68753H11.9207C12.1267 1.68753 12.2709 1.76306 12.4082 1.90039L14.269 3.7612C14.3995 3.89853 14.475 4.03586 14.475 4.24872V7.00903C14.475 7.23563 14.4064 7.36609 14.269 7.50342L7.61545 14.1639ZM11.0761 6.07519C11.6392 6.07519 12.0649 5.64261 12.0649 5.08643C12.0649 4.53711 11.6392 4.09766 11.0761 4.09766C10.52 4.09766 10.0942 4.53711 10.0942 5.08643C10.0942 5.64261 10.52 6.07519 11.0761 6.07519Z" fill="white"/>
</svg>
