<svg width="22" height="22" viewBox="0 0 22 22" fill="none" xmlns="http://www.w3.org/2000/svg">
<g id="Vector">
<path d="M11 21C16.5228 21 21 16.5228 21 11C21 5.47715 16.5228 1 11 1C5.47715 1 1 5.47715 1 11C1 16.5228 5.47715 21 11 21Z" fill="#D9D9D9"/>
<path d="M11 21C16.5228 21 21 16.5228 21 11C21 5.47715 16.5228 1 11 1C5.47715 1 1 5.47715 1 11C1 16.5228 5.47715 21 11 21Z" fill="url(#paint0_linear_679_906)"/>
<path d="M15.24 6.76L13.12 13.12L6.76 15.24L8.88 8.88L15.24 6.76Z" fill="#D9D9D9"/>
<path d="M15.24 6.76L13.12 13.12L6.76 15.24L8.88 8.88L15.24 6.76Z" fill="url(#paint1_linear_679_906)"/>
<path d="M11 21C16.5228 21 21 16.5228 21 11C21 5.47715 16.5228 1 11 1C5.47715 1 1 5.47715 1 11C1 16.5228 5.47715 21 11 21Z" stroke="#225A27" stroke-width="1.5" stroke-linecap="round" stroke-linejoin="round"/>
<path d="M15.24 6.76L13.12 13.12L6.76 15.24L8.88 8.88L15.24 6.76Z" stroke="#225A27" stroke-width="1.5" stroke-linecap="round" stroke-linejoin="round"/>
</g>
<defs>
<linearGradient id="paint0_linear_679_906" x1="11" y1="1" x2="11" y2="21" gradientUnits="userSpaceOnUse">
<stop stop-color="#D89F3C"/>
<stop offset="1" stop-color="#FFE9C0"/>
</linearGradient>
<linearGradient id="paint1_linear_679_906" x1="11" y1="1" x2="11" y2="21" gradientUnits="userSpaceOnUse">
<stop stop-color="#D89F3C"/>
<stop offset="1" stop-color="#FFE9C0"/>
</linearGradient>
</defs>
</svg>
