<svg width="22" height="22" viewBox="0 0 22 22" fill="none" xmlns="http://www.w3.org/2000/svg">
<path d="M17.5666 6.47501L14.0235 3.01431C13.8862 2.87698 13.6733 2.78772 13.4879 2.78772C13.0554 2.78772 12.7601 3.08984 12.7601 3.51556C12.7601 3.72156 12.8288 3.88635 12.973 4.02368L14.4424 5.43817L15.4861 6.34454L14.0304 6.28961L5.46793 6.28961C5.03534 6.28961 4.72635 6.5986 4.72635 7.02432C4.72635 7.45004 5.03534 7.75217 5.46793 7.75217L14.0304 7.75217L15.4861 7.7041L14.4424 8.60361L12.973 10.0181C12.8288 10.1554 12.7601 10.3271 12.7601 10.5331C12.7601 10.9519 13.0554 11.2541 13.4879 11.2541C13.6733 11.2541 13.8862 11.1648 14.0235 11.0275L17.5666 7.56677C17.8825 7.26465 17.8893 6.784 17.5666 6.47501ZM4.96668 15.525L8.50977 18.9857C8.65396 19.123 8.86682 19.2123 9.05222 19.2123C9.47794 19.2123 9.77319 18.9102 9.77319 18.4844C9.77319 18.2784 9.70453 18.1136 9.5672 17.9763L8.09778 16.5618L7.05408 15.6555L8.50977 15.7104H17.0722C17.4911 15.7104 17.8069 15.4014 17.8069 14.9757C17.8069 14.5568 17.4911 14.2478 17.0722 14.2478H8.50977L7.05408 14.2959L8.09778 13.3964L9.5672 11.9819C9.70453 11.8446 9.77319 11.6729 9.77319 11.4738C9.77319 11.0481 9.47794 10.7459 9.05222 10.7459C8.86682 10.7459 8.65396 10.8352 8.50977 10.9725L4.96668 14.4332C4.64395 14.7353 4.63709 15.216 4.96668 15.525Z" fill="white"/>
</svg>
