<svg width="40" height="40" viewBox="0 0 40 40" fill="none" xmlns="http://www.w3.org/2000/svg">
<path d="M13.7126 27.9851C12.6939 27.9851 11.868 27.1592 11.868 26.1405V14.307C11.868 12.9935 12.9899 11.9601 14.299 12.0677C15.0117 12.1263 15.654 12.5207 16.0287 13.1298L20.4629 20.3381C20.6979 20.7201 20.4231 21.2119 19.9745 21.2119C19.5311 21.2119 19.2555 20.7301 19.4803 20.3478L23.7587 13.0723C24.1465 12.4128 24.8427 11.9954 25.6072 11.964C26.8837 11.9115 27.9481 12.9305 27.9513 14.2082L27.9807 26.135C27.9832 27.156 27.1562 27.9851 26.1352 27.9851C25.1184 27.9851 24.2932 27.1627 24.2897 26.146L24.2571 16.8365C24.2567 16.7065 24.362 16.6009 24.492 16.6009C24.6799 16.6009 24.7917 16.8106 24.6869 16.9666L20.1488 23.7278C20.0943 23.8089 20.0031 23.8576 19.9054 23.8576C19.8092 23.8576 19.7192 23.8105 19.6644 23.7315L15.0343 17.0514C14.9024 16.8611 15.0386 16.6009 15.2702 16.6009C15.4287 16.6009 15.5572 16.7294 15.5572 16.8879V26.1405C15.5572 27.1592 14.7314 27.9851 13.7126 27.9851Z" fill="#ADADAD"/>
<path fill-rule="evenodd" clip-rule="evenodd" d="M20 40C31.0457 40 40 31.0457 40 20C40 8.9543 31.0457 0 20 0C8.9543 0 0 8.9543 0 20C0 31.0457 8.9543 40 20 40ZM20 37.6559C29.7509 37.6559 37.6556 29.7512 37.6556 20.0003C37.6556 10.2493 29.7509 2.34458 20 2.34458C10.249 2.34458 2.34428 10.2493 2.34428 20.0003C2.34428 29.7512 10.249 37.6559 20 37.6559Z" fill="#ADADAD"/>
<path fill-rule="evenodd" clip-rule="evenodd" d="M21.0989 7.81437C20.7369 7.78214 20.3704 7.76569 20 7.76569C19.5795 7.76569 19.164 7.7869 18.7545 7.8283V16.527L20.0305 18.6436L21.0989 16.764V7.81437ZM22.5641 21.219L23.7073 19.5029L23.7345 26.3117C23.7398 27.6421 24.8197 28.7177 26.15 28.7177C27.4864 28.7177 28.5688 27.6327 28.5656 26.2964L28.5371 14.2067C28.5335 12.6712 27.2877 11.4283 25.7522 11.4283C24.7505 11.4283 23.826 11.9662 23.3311 12.8371L22.5641 14.1863V8.03482C27.263 9.03689 30.963 12.7368 31.9652 17.4356H35.7509V19.4868H32.2238C32.2309 19.6571 32.2344 19.8282 32.2344 20.0001C32.2344 20.2708 32.2256 20.5395 32.2083 20.8058H35.7509V22.8571H31.899C30.8083 27.4165 27.1651 30.9842 22.5641 31.9654V21.219ZM21.0989 23.4184L20.2284 24.7252C20.1722 24.8095 20.0776 24.8601 19.9763 24.8601C19.8786 24.8601 19.7868 24.8129 19.73 24.7334L18.7545 23.3684V32.1719C19.164 32.2133 19.5795 32.2346 20 32.2346C20.3704 32.2346 20.7369 32.2181 21.0989 32.1859V23.4184ZM7.76555 20.0001C7.76555 19.8282 7.7691 19.6571 7.77612 19.4868H4.24902V17.4356H8.03478C9.02657 12.7857 12.6602 9.1141 17.2893 8.06702V14.0966L16.4731 12.7428C15.9814 11.927 15.0984 11.4283 14.1459 11.4283C12.6451 11.4283 11.4285 12.645 11.4285 14.1458V26.3773C11.4285 27.6699 12.4763 28.7177 13.7689 28.7177C15.0615 28.7177 16.1093 27.6699 16.1093 26.3773V19.6669L17.2893 21.3181V31.9332C12.7576 30.9082 9.18002 27.368 8.10092 22.8571H4.24902V20.8058H7.79165C7.77434 20.5395 7.76555 20.2708 7.76555 20.0001Z" fill="#ADADAD"/>
<path fill-rule="evenodd" clip-rule="evenodd" d="M17.2893 4.33046C13.0602 5.05353 9.40115 7.4471 7.01539 10.8079C6.54762 11.4669 7.04952 12.3301 7.85762 12.3301C8.21094 12.3301 8.53883 12.1525 8.74784 11.8677C10.7739 9.10622 13.7984 7.12297 17.2893 6.4497V4.33046ZM17.2893 33.666C13.801 32.9932 10.7785 31.0125 8.75239 28.2542C8.55082 27.9798 8.23465 27.8092 7.89416 27.8092C7.10914 27.8092 6.62515 28.6513 7.0843 29.2881C9.4713 32.5983 13.1007 34.9531 17.2893 35.6692V33.666ZM18.7545 35.8502V33.8681C19.1418 33.9006 19.5337 33.9172 19.9294 33.9172C20.3233 33.9172 20.7134 33.9007 21.0989 33.8685V35.859C20.7318 35.8844 20.3612 35.8973 19.9876 35.8973C19.5727 35.8973 19.1615 35.8814 18.7545 35.8502ZM18.7545 6.24765V4.14953C19.1615 4.11831 19.5727 4.10242 19.9876 4.10242C20.3612 4.10242 20.7318 4.1153 21.0989 4.14066V6.2472C20.7134 6.21499 20.3233 6.19855 19.9294 6.19855C19.5337 6.19855 19.1418 6.21514 18.7545 6.24765ZM22.5641 33.667V35.6896C26.7736 35.0035 30.4279 32.6643 32.8387 29.36C33.3248 28.6938 32.8169 27.8092 31.9921 27.8092C31.6344 27.8092 31.3024 27.9886 31.09 28.2764C29.063 31.0245 26.0454 32.997 22.5641 33.667ZM22.5641 4.31015V6.44868C26.0479 7.11916 29.0674 9.09409 31.0944 11.8452C31.3143 12.1437 31.6583 12.3301 32.029 12.3301C32.8769 12.3301 33.4029 11.4245 32.9083 10.7359C30.4985 7.38084 26.8144 5.00282 22.5641 4.31015Z" fill="#ADADAD"/>
</svg>
