<svg width="22" height="22" viewBox="0 0 22 22" fill="none" xmlns="http://www.w3.org/2000/svg">
<path d="M11 11.0871C11.1648 11.0871 11.3158 11.0321 11.4738 10.8742L13.7054 8.72501C13.8152 8.61514 13.877 8.49155 13.877 8.32675C13.877 8.01776 13.6298 7.79117 13.3277 7.79117C13.1698 7.79117 13.0187 7.85297 12.9088 7.97656L11.9887 8.9516L11.5768 9.44598L11.6454 8.41601V3.26617C11.6454 2.92972 11.357 2.63446 11 2.63446C10.6498 2.63446 10.3614 2.92972 10.3614 3.26617V8.41601L10.4301 9.45285L10.0112 8.9516L9.09796 7.97656C8.9881 7.85297 8.83017 7.79117 8.67224 7.79117C8.37012 7.79117 8.12292 8.01776 8.12292 8.32675C8.12292 8.49155 8.18472 8.61514 8.30145 8.72501L10.533 10.8742C10.691 11.0321 10.842 11.0871 11 11.0871ZM5.12228 18.0222H16.8708C18.3608 18.0222 19.1367 17.2531 19.1367 15.7837V11.7531C19.1367 11.0253 19.0475 10.6339 18.7179 10.2082L16.4519 7.29678C15.628 6.23248 15.1061 5.69003 13.8495 5.69003H12.9157V6.81613H13.9113C14.392 6.81613 14.8658 7.21439 15.1816 7.61951L17.53 10.7094C17.7634 11.0184 17.6742 11.1489 17.324 11.1489H13.0187C12.6616 11.1489 12.4969 11.4029 12.4969 11.6707V11.6982C12.4969 12.4398 11.9201 13.2294 11 13.2294C10.073 13.2294 9.49621 12.4398 9.49621 11.6982V11.6707C9.49621 11.4029 9.33829 11.1489 8.97436 11.1489H4.67596C4.31891 11.1489 4.24338 10.9978 4.46997 10.7094L6.8183 7.61951C7.13415 7.21439 7.60794 6.81613 8.08859 6.81613H9.08423V5.69003H8.15039C6.89383 5.69003 6.37198 6.22562 5.548 7.29678L3.27521 10.2082C2.95248 10.6407 2.86322 11.0253 2.86322 11.7531V15.7837C2.86322 17.2531 3.63913 18.0222 5.12228 18.0222ZM5.19095 16.6489C4.55923 16.6489 4.21591 16.3193 4.21591 15.6601V12.3574H8.32892C8.54864 13.5796 9.61294 14.486 11 14.486C12.387 14.486 13.4513 13.5796 13.671 12.3574H17.784V15.6601C17.784 16.3193 17.4338 16.6489 16.8021 16.6489H5.19095Z" fill="white"/>
</svg>
