<svg width="22" height="22" viewBox="0 0 22 22" fill="none" xmlns="http://www.w3.org/2000/svg">
<path d="M11 11.7737C11.3571 11.7737 11.6454 11.4853 11.6454 11.142V4.54333L11.5905 3.5271L12.0162 4.02835L12.9775 5.05145C13.0874 5.17505 13.2453 5.23685 13.4033 5.23685C13.7191 5.23685 13.98 5.01025 13.98 4.68753C13.98 4.51587 13.9114 4.39227 13.7946 4.27554L11.4944 2.05768C11.3227 1.89288 11.1717 1.83795 11 1.83795C10.8352 1.83795 10.6773 1.89288 10.5125 2.05768L8.20535 4.27554C8.08862 4.39227 8.02682 4.51587 8.02682 4.68753C8.02682 5.01025 8.28088 5.23685 8.59674 5.23685C8.75467 5.23685 8.91946 5.17505 9.02933 5.05145L9.98376 4.02835L10.4095 3.52023L10.3614 4.54333V11.142C10.3614 11.4853 10.6498 11.7737 11 11.7737ZM5.12231 18.0222H16.8708C18.3608 18.0222 19.1367 17.2531 19.1367 15.7837V11.7531C19.1367 11.0253 19.0681 10.627 18.7179 10.2082L16.7198 7.74997C15.8065 6.63074 15.4632 6.36295 14.2066 6.36295H12.9157V7.50278H14.241C14.7148 7.50278 15.0169 7.59891 15.4083 8.07956L17.53 10.7094C17.7703 11.0184 17.6742 11.1489 17.324 11.1489H13.0187C12.6617 11.1489 12.4969 11.4029 12.4969 11.6707V11.6982C12.4969 12.4398 11.9201 13.2294 11 13.2294C10.073 13.2294 9.49625 12.4398 9.49625 11.6982V11.6707C9.49625 11.4029 9.33832 11.1489 8.97439 11.1489H4.67599C4.31894 11.1489 4.24341 10.9978 4.47 10.7094L6.578 8.10016C6.98312 7.60577 7.27838 7.50278 7.75903 7.50278H9.08426V6.36295H7.79336C6.5368 6.36295 6.20035 6.62387 5.26651 7.7637L3.27524 10.2082C2.93878 10.6201 2.86325 11.0253 2.86325 11.7531V15.7837C2.86325 17.2531 3.63916 18.0222 5.12231 18.0222ZM5.19098 16.6489C4.55926 16.6489 4.21594 16.3193 4.21594 15.6601V12.3574H8.32895C8.54867 13.5796 9.61298 14.486 11 14.486C12.387 14.486 13.4513 13.5796 13.671 12.3574H17.7841V15.6601C17.7841 16.3193 17.4339 16.6489 16.8022 16.6489H5.19098Z" fill="white"/>
</svg>
